<svg width="900" height="1400" viewBox="0 0 900 1400" fill="none" xmlns="http://www.w3.org/2000/svg">
  <rect width="900" height="1400" rx="42" fill="#0B1220"/>
  <rect width="900" height="1400" rx="42" fill="url(#paint0_linear)"/>
  <circle cx="714" cy="238" r="212" fill="url(#paint1_radial)" fill-opacity="0.9"/>
  <circle cx="210" cy="1210" r="248" fill="url(#paint2_radial)" fill-opacity="0.74"/>
  <path d="M146 236C278 188 430 180 582 224C660 246 726 282 786 340V416C714 344 630 300 528 274C386 240 252 246 146 292V236Z" fill="rgba(255,255,255,0.0)"/>
  <path d="M146 236C278 188 430 180 582 224C660 246 726 282 786 340V416C714 344 630 300 528 274C386 240 252 246 146 292V236Z" fill="#F7D8A0" fill-opacity="0.18"/>
  <path d="M124 786C226 714 334 668 446 648C574 624 686 646 782 710V778C676 710 564 690 448 714C340 736 232 784 124 860V786Z" fill="#8FE3FF" fill-opacity="0.18"/>
  <rect x="104" y="110" width="84" height="1180" rx="18" fill="rgba(255,255,255,0.0)"/>
  <rect x="104" y="110" width="84" height="1180" rx="18" fill="#F6F0E7" fill-opacity="0.08"/>
  <rect x="132" y="144" width="10" height="1112" rx="5" fill="#F6F0E7" fill-opacity="0.32"/>
  <rect x="228" y="1088" width="444" height="2" fill="#F6F0E7" fill-opacity="0.24"/>
  <rect x="228" y="1126" width="324" height="2" fill="#F6F0E7" fill-opacity="0.18"/>
  <defs>
    <linearGradient id="paint0_linear" x1="120" y1="64" x2="784" y2="1318" gradientUnits="userSpaceOnUse">
      <stop stop-color="#13203A"/>
      <stop offset="0.56" stop-color="#15243B"/>
      <stop offset="1" stop-color="#0A101B"/>
    </linearGradient>
    <radialGradient id="paint1_radial" cx="0" cy="0" r="1" gradientUnits="userSpaceOnUse" gradientTransform="translate(714 238) rotate(90) scale(212)">
      <stop stop-color="#FFB25D"/>
      <stop offset="1" stop-color="#FFB25D" stop-opacity="0"/>
    </radialGradient>
    <radialGradient id="paint2_radial" cx="0" cy="0" r="1" gradientUnits="userSpaceOnUse" gradientTransform="translate(210 1210) rotate(90) scale(248)">
      <stop stop-color="#8FDFFF"/>
      <stop offset="1" stop-color="#8FDFFF" stop-opacity="0"/>
    </radialGradient>
  </defs>
</svg>
