<svg width="900" height="1400" viewBox="0 0 900 1400" fill="none" xmlns="http://www.w3.org/2000/svg">
  <rect width="900" height="1400" rx="42" fill="#13101A"/>
  <rect width="900" height="1400" rx="42" fill="url(#paint0_linear)"/>
  <rect x="118" y="118" width="60" height="1164" rx="16" fill="#FFF4E8" fill-opacity="0.08"/>
  <path d="M236 224H744" stroke="#FFF4E8" stroke-opacity="0.16" stroke-width="2"/>
  <path d="M236 1004H744" stroke="#FFF4E8" stroke-opacity="0.14" stroke-width="2"/>
  <path d="M236 326C360 250 488 214 620 222C696 226 762 254 814 308V424C754 358 682 324 596 322C478 320 358 360 236 438V326Z" fill="#FFB25D" fill-opacity="0.18"/>
  <path d="M236 682C382 590 516 552 638 564C714 572 774 608 820 674V772C766 698 704 658 634 648C522 634 390 676 236 776V682Z" fill="#8FDFFF" fill-opacity="0.18"/>
  <path d="M236 854C378 770 502 736 608 752C688 764 756 808 814 884V994C750 908 680 860 604 850C504 836 384 878 236 978V854Z" fill="#C4A8FF" fill-opacity="0.12"/>
  <circle cx="706" cy="220" r="148" fill="#FFB25D" fill-opacity="0.12"/>
  <defs>
    <linearGradient id="paint0_linear" x1="96" y1="86" x2="780" y2="1328" gradientUnits="userSpaceOnUse">
      <stop stop-color="#221B2F"/>
      <stop offset="0.52" stop-color="#171222"/>
      <stop offset="1" stop-color="#0C0A12"/>
    </linearGradient>
  </defs>
</svg>
